<svg height="133" viewBox="0 0 173 133" width="173" xmlns="http://www.w3.org/2000/svg" xmlns:xlink="http://www.w3.org/1999/xlink"><mask id="a" fill="#fff"><path d="m64.1340925 12.1836709c-3.5364996-2.24144305-8.2523207-3.16063293-14.1188959-1.9653924-2.5124676.5117215-4.7846759 1.2994937-6.8202874 2.3053164-.5603608-6.28455693-6.4569684-11.14848098-14.2470829-7.47245566l-21.62553373 10.20506326c-6.16030683 2.9066076-8.09776362 9.1346329-6.99974935 14.0044304 1.33314606 5.9079241 6.27384399 8.4004557 11.96754968 5.9938228 1.6583751 8.4312911 3.553347 26.4318481 16.95879 21.6846582 4.7312035-1.6761266 7.106694-4.6473417 8.0750562-8.2220506 3.5511495 2.4286582 8.3665903 3.5996709 14.4126275 2.7252658 3.9957757-.5785316 7.3894382-1.9426329 10.1897774-3.8397468 3.1431482 8.0348354 14.9693258 13.1887595 25.6564693.3670886l7.0363743-10.2843544 12.7439974-13.7188355c15.753098-17.01382277-5.484944-29.9243291-18.3981483-18.00349366-2.017299-3.92050633-5.7002982-5.64802532-9.6396715-5.64802532-6.4540385.00073418-13.5922299 4.64000001-15.1912727 11.86870888" fill="#fff" fill-rule="evenodd"/></mask><g fill="none" fill-rule="evenodd"><g transform="translate(.331144)"><path d="m159.723037 57.5341923c-.106066 0-.211401.0014615-.318931.0036539-.868282-.1790385-1.784111-.2696539-2.740173-.2696539-.436701 0-.890958.0182692-1.351067.0562692l-20.467906 1.6668847c-2.751146.2243461-4.936115 1.0946923-6.601725 2.3508846-1.492977-.5495385-3.29757-.9141923-5.483272-.9960385-.021944-.0036538-.041695-.0065769-.062908-.0102308-.81342-1.3482692-1.693406-2.6548846-2.636301-3.9161923l3.063493-4.4620769 12.365158-13.2663846c7.292254-7.8513846 8.012043-14.8360769 7.332486-19.3127692-.730762-4.7960385-3.478981-9.0549616-7.622157-11.88669235-3.523602-4.01630769-8.955669-6.37230769-14.851503-6.37230769-3.681604 0-7.306152.91346154-10.605186 2.63223077-2.987417-2.394-6.760458-3.67796154-10.9526449-3.67796154-6.8840808 0-14.4959972 3.77953846-18.703545 10.30530771-1.99405-.48303848-4.0992869-.73003848-6.2835251-.73003848-2.0145318 0-4.0839255.21776923-6.1394209.64088458-1.4008092-1.22988458-3.0035104-2.2054615-4.7481212-2.88142304-2.7577287-2.43492308-6.3318036-3.79488461-10.1224004-3.79488461-2.624597 0-5.2908891.62846153-7.9235324 1.86711538l-22.0376903 10.36449997c-7.0596391 3.3206154-11.2620665 10.1511154-10.9672749 17.8263846.2092071 5.4632308 2.7899144 10.2548847 6.7919127 12.9411924 1.89603 2.8061538 4.5528126 4.8143076 7.658732 5.8176538 1.2479271 5.1511923 3.4387487 11.2195 7.9783944 14.9435-.4030527-.0438462-.8141518-.0657692-1.2311028-.0657692-.256754 0-.5135081.0095-.7695307.0263077-.5954353-.1096154-1.204769-.1651539-1.8206861-.1651539-.2786988 0-.5625181.0109616-.8558468.0343462-2.3261478.1914615-4.354578 1.0888461-5.9375289 2.4933846-1.5953862-.5108077-3.3524325-.7943462-5.2667497-.7943462-.0687604 0-.1382522.0007308-.2070125.0014616-.7497804-.1008462-1.5302834-.1512693-2.3327313-.1512693-.5522772 0-1.1279622.0233847-1.7124252.0708847l-4.59889657.3756153c-4.41090292.3573462-9.56134528 3.4762693-9.56134528 11.0879616v12.4143077c0 3.3615384 1.2896222 6.2575769 3.47239737 8.1283462 1.94503994 2.804692 5.07802455 4.4555 8.70842438 4.4555.1075295 0 .215059-.001462.3240514-.004385 4.5945077-.1235 8.2490468-2.853654 9.8334607-6.9386535.468887.601423.9743487 1.1056538 1.4820049 1.5221923 2.044523 2.8602312 5.3318526 4.5000772 9.2372939 4.5000772.1316687 0 .2640689-.002193.360626-.005116.2889398 0 .679557.030693 1.1360087.057731.893153.054808 1.9860035.121308 3.1922355.131539 7.6192313 17.017423 24.8510124 28.451038 43.8405712 28.451038 20.4408408 0 38.2841498-12.718308 45.0958128-31.523923 4.183409-.944885 7.273236-3.6538462 8.499218-7.3727308.852921 1.3548461 1.988929 2.508 3.364868 3.384923 2.411732 2.6402688 5.922899 4.1609998 9.804932 4.1609998h.001463c3.311469 0 6.478102-1.128307 8.916169-3.1773844 2.925972-2.4597692 4.538182-5.9879231 4.538182-9.9340769l.001463-7.5919615c.824393-.1753847 1.658295-.4106924 2.479762-.7293077 4.783233-1.849577 7.63825-6.0091154 7.63825-11.1259616 0-6.8041923-5.018042-11.5563846-12.20423-11.5563846" fill="#fff"/><path d="m56.5796685 84.0801885-.7249096 2.6241923 1.3795958-.0621154s-.3598945-1.2547308-.6546862-2.5620769zm2.6867738 9.6958461-.2026235-.6964231-5.0041438.1753847-.2099385.7475769c-1.0643223 3.9023077-7.5629063 3.1247692-7.5629063-1.1685 0-1.2963846.6129911-2.9932308 1.0138493-4.2296923l4.1241577-12.5319616c1.1718518-3.4916154 2.7928403-3.6180384 6.0055577-3.8796538 2.3824727-.1929231 3.5631025 1.3197692 4.2594838 3.2519231l4.3853007 12.4143077c.4410903 1.2649615 1.1096749 3.0078461 1.1096749 4.3466153 0 4.3970385-6.8050796 5.5092693-7.918412 1.5704231zm49.4562427.7746154c-3.729882.1045-5.766359-1.6683462-5.766359-5.4946538v-14.6015c0-3.7751539 1.958938-5.6934231 5.643469-5.9886539 7.20228-.5787692 18.369252-3.4945385 18.369252 2.6402692 0 2.5028847-1.85214 4.072577-4.847604 4.2771923l-8.753777.595577v1.0932307c2.637033-.1607692 11.588313-2.1937692 11.588313 3.3761539 0 5.4171923-8.70111 4.3773077-11.588313 4.5176154v1.5638461l9.043448-.3639231c3.014483-.1213076 4.97781 1.2868847 4.97781 3.8701539 0 2.5321154-1.891641 4.0462692-4.898808 4.1303077zm-28.2451395-8.7129615v5.2074615c0 6.5001923-9.1144031 6.7486538-9.1144031.2426154v-15.5544231c0-5.6159615 7.3332176-7.0446154 9.9702499-2.8127308l4.3443371 7.0723847v-5.5509231c0-6.3730385 9.5942624-6.9627693 9.5942624-.5356539v16.935577c0 3.4360769-2.7145706 4.7025-5.3845201 4.7733846-2.4409922.0657692-3.8556997-.6986154-5.4437711-3.2380385 0 0-2.4468441-3.8738077-3.9661551-6.5396538zm-44.7373817-7.2148847v10.5238077c2.8550173-.1183846 8.6338121-1.4366923 8.6338121 3.4616539 0 5.7321538-9.6791156 4.0104615-12.1844792 4.0806154-2.9669357.0825769-4.3553095-1.6946539-4.3553095-4.7858077v-12.8739616c0-6.0646538 7.9059766-6.529423 7.9059766-.4063077zm105.8097342 9.8946154v-13.8188461c-3.218569.2148461-9.356527 1.5229231-9.356527-3.8350769 0-2.6315 1.729981-4.4313847 5.1007-4.7025l20.544713-1.650077c3.63991-.2923077 5.710035 1.3139231 5.710035 4.2143462 0 5.4946538-6.554909 4.9414615-10.119475 5.1796923v14.2668077c0 7.5079231-11.879446 7.8535769-11.879446.3456538zm-126.7304346-5.6707692v1.6288846l1.6341554-.0928077c.2940602-.0168077.6905294-.2426154.6905294-.8973846 0-.6087308-.1865307-.7841154-.7965959-.7424615zm-3.5762694 14.7644615c-2.46220548.0665-3.60333459-1.8261923-3.60333459-4.1690384v-12.2827693c0-5.6400769 4.41090289-4.9407307 8.51677329-5.2703076 4.3523834-.3500385 8.434846 1.0647307 8.434846 7.2477692 0 6.7040769-4.4072455 7.9485769-9.7720153 8.1853461v1.9453077c0 2.3698846-1.1455181 4.2779231-3.5762694 4.3436923z" fill="#fddc92"/><path d="m39.848887 84.6946192c0-22.4404615 18.2105187-40.6322307 40.6739379-40.6322307 22.4648821 0 40.6754011 18.1917692 40.6754011 40.6322307 0 22.4411928-18.210519 40.6322308-40.6754011 40.6322308-22.4634192 0-40.6739379-18.191038-40.6739379-40.6322308" fill="#fddc92"/><path d="m22.1697979 38.6244423c-1.0972396-4.8471923.838291-11.0455769 6.9894158-13.9394231l21.5965999-10.1576923c7.7786968-3.6589615 13.6679471 1.1823846 14.2275393 7.4385 2.0320876-1.0018846 4.301179-1.7852692 6.8102-2.2953461 5.8585276-1.1889616 10.5686112-.2740385 14.099528 1.9562692 2.5719295-11.5870769 19.4833171-16.48761538 24.7968821-6.1910769 12.89549-11.86550002 34.104399.9843461 18.37291 17.9191923l-12.726516 13.6558846-7.026722 10.2358846c-10.6717512 12.7621539-22.481706 7.6321539-25.6212741-.3653846-2.7964978 1.8890385-6.1855049 3.2460769-10.1757994 3.8219231-6.0377434.8703461-10.845847-.2945-14.3921252-2.7126154-.9677652 3.5588461-3.3392656 6.5155385-8.0647105 8.1846154-13.3870538 4.7251538-15.2794262-13.1918462-16.9355264-21.584-5.6858953 2.3947307-10.6198157-.0862308-11.9504015-5.9667308" fill="#d8d9da"/></g><path d="m18.0295797 75.5417696c0-22.5451139 18.2348012-40.8224557 40.7290774-40.8224557 22.4950086 0 40.7305423 18.2773418 40.7305423 40.8224557 0 22.5465823-18.2355337 40.8224554-40.7305423 40.8224554-22.4942762 0-40.7290774-18.2758731-40.7290774-40.8224554" fill="#d7c292" mask="url(#a)" transform="translate(22.331144 10)"/><g transform="translate(5.331144 8)"><path d="m22.95282 33.8415934c-11.0762667 4.6462377-15.37873333-12.9648196-3.872-18.3536967l22.0924-10.34734424c7.92-3.70954918 13.6202 2.02292623 12.9440667 8.57609834 7.579-4.56453277 17.2384666-5.19482785 23.3706-.4282213 1.1300666-12.58401638 19.8652666-18.19831147 24.1420663-6.27595901 12.026667-12.99837705 33.9108-1.15189344 18.348 15.53268851l-13.0768 13.9708115-7.203533 10.4538525c-10.9068667 12.9867049-22.7648667 6.679377-24.7140667-1.5538525-7.9522666 6.0636721-19.5961333 6.6086147-26.4975333.9155328-.6204 4.0932705-2.7962 7.5722951-7.8606 9.3522951-13.1956 4.6374836-14.3652667-14.8950984-16.1304-22.4892787z" fill="#fefefe"/><path d="m22.95282 33.8415934c-11.0762667 4.6462377-15.37873333-12.9648196-3.872-18.3536967l22.0924-10.34734424c7.92-3.70954918 13.6202 2.02292623 12.9440667 8.57609834 7.579-4.56453277 17.2384666-5.19482785 23.3706-.4282213 1.1300666-12.58401638 19.8652666-18.19831147 24.1420663-6.27595901 12.026667-12.99837705 33.9108-1.15189344 18.348 15.53268851l-13.0768 13.9708115-7.203533 10.4538525c-10.9068667 12.9867049-22.7648667 6.679377-24.7140667-1.5538525-7.9522666 6.0636721-19.5961333 6.6086147-26.4975333.9155328-.6204 4.0932705-2.7962 7.5722951-7.8606 9.3522951-13.1956 4.6374836-14.3652667-14.8950984-16.1304-22.4892787z" stroke="#fefefe" stroke-linecap="round" stroke-linejoin="round" stroke-width="3.028"/><path d="m22.95282 33.8415934c-11.0762667 4.6462377-15.37873333-12.9648196-3.872-18.3536967l22.0924-10.34734424c7.92-3.70954918 13.6202 2.02292623 12.9440667 8.57609834 7.579-4.56453277 17.2384666-5.19482785 23.3706-.4282213 1.1300666-12.58401638 19.8652666-18.19831147 24.1420663-6.27595901 12.026667-12.99837705 33.9108-1.15189344 18.348 15.53268851l-13.0768 13.9708115-7.203533 10.4538525c-10.9068667 12.9867049-22.7648667 6.679377-24.7140667-1.5538525-7.9522666 6.0636721-19.5961333 6.6086147-26.4975333.9155328-.6204 4.0932705-2.7962 7.5722951-7.8606 9.3522951-13.1956 4.6374836-14.3652667-14.8950984-16.1304-22.4892787z" fill="#e20061"/><path d="m94.49726 9.26526475 1.573 7.04559015 5.0138-6.6677049c2.353267-3.09530328 5.5374-4.67906557 8.8946-4.5207623 4.73.2225 7.313533 4.24354919 6.2238 8.4717787-.4928 1.912041-1.760733 3.4848606-3.3132 5.2320328l-12.815 14.3683934-6.9747333 10.6077787c-3.2442667 4.048041-7.9112 6.7909918-12.1535334 4.9832705-4.1653333-1.7756229-5.6217333-6.5320164-2.9494666-10.415918l6.3880666-6.8478935-4.5958-15.1657459c-.5324-1.7705164-.8990666-3.3353114-.4766666-5.1080164.9335333-3.91745898 4.8884-7.33958193 9.1307333-7.13969669 3.1108.14663115 5.3152 1.9492459 6.0544 5.15689344" fill="#f9ba00"/><path d="m60.3979933 34.9757598c1.1887334-.2093688 2.5058-1.1949344 2.3672-5.2947705-.1613333-4.7636885-1.5935333-5.118959-2.7096666-4.896459-1.1102667.2217705-2.4772 1.1285492-2.3195334 5.8382541.1356667 4.0538771 1.4806 4.5608853 2.662 4.3529754m.352 10.4589591c-8.4575333 1.2883114-15.4953333-2.3074345-15.8326666-12.7043853-.3351334-10.3356721 6.3741333-16.4912623 14.7876666-18.3719344 8.7479334-1.9543525 16.5872667 1.2985246 16.9752 12.4016393.3894 11.1702295-7.1346 17.3345738-15.9302 18.6746804" fill="#f9ba00"/><path d="m25.9341867 28.1145893-4.7058 2.1214099c-3.4371334 1.5494754-5.6254-.1108853-6.3286667-3.2674672-.7172-3.2229672.4678667-6.3467213 4.1279333-8.1099427l21.5893334-10.40205733c4.1455333-1.99739345 6.7276-.47418033 7.5716666 2.98879503.8272 3.3936722-.4708 6.8493525-4.3750666 8.6096558l-5.1267334 2.311082 4.5569334 19.2480737c1.0626 4.488664-.7876 8.5337869-4.8832667 10.0942049-4.0164667 1.5297787-7.1463333-.5150327-8.1444-4.8782213z" fill="#f9ba00"/><g fill="#008dcd"><path d="m5.29408 77.7798721v-3.9327787l2.5872-.1765409c1.2628-.0868115 2.01153333.6105983 2.01153333 1.8938032 0 1.3101968-.90713333 2.0039591-1.76366666 2.0528361zm-4.89426667 7.8312705c0 2.0046885.8646 3.1011394 2.43026667 3.0588279 1.5796-.0437705 2.464-1.202959 2.464-3.2353689v-3.0617459l2.5652-.1145327c3.9974-.178 7.1947333-1.7851066 7.1947333-7.0448607 0-5.2874754-3.1973333-6.4918934-7.1947333-6.1679918l-4.6134.3749672c-1.93893333.1568443-2.84606667 1.2977951-2.84606667 3.7978197z"/><path d="m26.1890933 82.4746951v-11.8151148c0-2.1513196-1.0875333-3.3739754-2.8306666-3.2309918-1.727.1407951-2.7888667 1.5217541-2.7888667 3.6402459v12.9888935c0 2.6422787 1.0142 3.7416475 3.1804667 3.6803688l8.5118-.2392787c1.5165333-.043041 2.5512666-1.0439262 2.5512666-2.7290901 0-1.685164-1.0347333-2.6130984-2.5512666-2.5503607z"/><path d="m50.2859867 79.8316139-4.3831334.2006148 2.1523334-7.8670164.055-.0036475zm1.1814 4.2347951.4517333 1.5647951c.3395333 1.2131721 1.6184667 1.6559836 2.6466 1.6282623 1.4945333-.041582 3.0294-1.2627787 3.0294-2.895418 0-.9972377-.5514667-2.578082-1.0435333-4.0057295l-4.378-12.5198197c-.6211334-1.7406066-1.4666667-2.6554099-3.0902667-2.5211803l-1.9968667.1634098c-1.595.1313115-2.4141333 1.1642951-3.014 2.9669098l-4.1162 12.639459c-.4524666 1.4072214-.957 2.9581558-.957 3.9108935 0 1.5596885 1.4102 2.6473852 2.8028 2.6087213.9702-.0262623 2.1897334-.5267049 2.5153334-1.736959l.4363333-1.5655246z"/><path d="m78.3417067 76.0016959-.0638.002918-6.3814667-10.4954344c-.9005333-1.4604754-2.1677333-2.0119836-3.8551333-1.8726475-2.6422.2173934-3.9959334 1.7114262-3.9959334 4.1071311v15.6939099c0 2.365795 1.2026667 3.653377 3.3858 3.5942868 2.2051334-.0590901 3.4400667-1.4349426 3.4400667-3.8386721v-8.8642541l.0623333-.004377 6.0016 9.6017868c1.4065334 2.2716886 2.4676667 2.7830738 4.4425334 2.7290902 2.387-.0634672 4.2702-1.1161475 4.2702-3.6679672v-17.086541c0-2.1637213-1.3889334-3.6001229-3.6835334-3.4104508-2.2718666.1860246-3.6226666 1.8223115-3.6226666 3.9510164z"/><path d="m95.5986533 81.1852164c0 3.1719016 1.4622667 4.4835574 4.5906667 4.3960164l13.748533-.3880984c2.606267-.0729508 3.7884-1.2853934 3.7884-3.0179754 0-1.7333115-1.182133-2.8633197-3.7884-2.757541l-10.2168.4143607v-3.867123l7.824667-.3837213c2.581333-.1262049 3.748067-1.3561557 3.748067-3.0799836 0-1.7245574-1.166734-2.8239262-3.748067-2.6663524l-7.824667.4807459v-3.3973197l9.803934-.6733361c2.6026-.1801885 3.7818-1.4378606 3.7818-3.1689836 0-1.7311229-1.1792-2.8137131-3.7818-2.6021557l-13.335667 1.0818606c-3.1284.2531394-4.5906667 1.7267459-4.5906667 4.8979181z"/><path d="m134.145953 65.4716098v15.1708525c0 2.7611885 1.8062 4.3974754 4.748334 4.3172295 2.977333-.0809754 4.840733-1.8507623 4.840733-4.6666639v-15.4684918l5.9796-.4034181c2.846067-.1918606 4.126467-1.6961065 4.126467-3.7482131 0-2.052836-1.2804-3.3659508-4.474067-3.1069754l-20.5194 1.6640082c-2.903267.2363607-4.047267 1.6661967-4.047267 3.6008525 0 1.9346557 1.144 3.1945164 3.7268 3.0201639z"/></g></g></g></svg>